<!--?xml version="1.0" encoding="utf-8"?-->
<!-- Generator: Adobe Illustrator 18.1.1, SVG Export Plug-In . SVG Version: 6.00 Build 0)  -->

<svg version="1.1" id="_x31_0" xmlns="http://www.w3.org/2000/svg" xmlns:xlink="http://www.w3.org/1999/xlink" x="0px" y="0px" viewBox="0 0 512 512" style="width: 256px; height: 256px; opacity: 1;" xml:space="preserve">
<style type="text/css">
	.st0{fill:#374149;}
</style>
<g>
	<path class="st0" d="M230.16,198.538c-0.25-1.391-0.574-2.496-0.965-3.297c-0.382-0.794-0.875-1.528-1.465-2.18
		c-0.902-1.023-2.047-1.859-3.402-2.496c-1.351-0.625-2.93-0.946-4.703-0.946c-1.774,0-3.355,0.321-4.699,0.946
		c-1.375,0.645-2.562,1.492-3.531,2.519c-0.574,0.629-1.066,1.363-1.445,2.153c-0.383,0.801-0.711,1.91-0.966,3.305
		c-0.266,1.468-0.449,3.332-0.546,5.574c-0.106,2.317-0.153,5.23-0.153,8.75c0,3.519,0.047,6.438,0.153,8.75
		c0.098,2.246,0.278,4.082,0.546,5.524c0.254,1.355,0.578,2.449,0.966,3.25c0.382,0.797,0.87,1.527,1.465,2.18
		c0.953,1.011,2.148,1.878,3.538,2.558c1.332,0.656,2.906,0.988,4.672,0.988c1.766,0,3.336-0.332,4.676-0.988
		c1.367-0.672,2.519-1.527,3.418-2.543c0.602-0.668,1.094-1.398,1.477-2.195c0.39-0.801,0.715-1.898,0.965-3.25
		c0.27-1.442,0.469-3.294,0.602-5.543c0.141-2.313,0.207-5.219,0.207-8.73c0-3.508-0.066-6.418-0.207-8.723
		C230.629,201.885,230.43,200.018,230.16,198.538z" style="fill: rgb(223, 86, 86);"></path>
	<path class="st0" d="M193.828,300.822c-0.25-1.375-0.574-2.484-0.961-3.297c-0.383-0.793-0.875-1.527-1.469-2.176
		c-0.906-1.027-2.047-1.863-3.406-2.496c-1.347-0.629-2.93-0.945-4.699-0.945c-1.774,0-3.351,0.316-4.703,0.945
		c-1.374,0.641-2.562,1.485-3.523,2.516c-0.574,0.629-1.066,1.363-1.45,2.156c-0.39,0.801-0.714,1.91-0.965,3.297
		c-0.266,1.473-0.449,3.336-0.55,5.578c-0.106,2.316-0.152,5.234-0.152,8.754c0,3.52,0.046,6.438,0.152,8.75
		c0.102,2.242,0.282,4.082,0.55,5.523c0.25,1.351,0.574,2.442,0.965,3.25c0.383,0.798,0.879,1.528,1.466,2.176
		c0.949,1.016,2.148,1.883,3.534,2.558c1.34,0.653,2.91,0.989,4.676,0.989c1.762,0,3.336-0.336,4.672-0.989
		c1.371-0.668,2.519-1.523,3.418-2.542c0.601-0.664,1.101-1.394,1.484-2.192c0.39-0.816,0.715-1.91,0.961-3.25
		c0.27-1.45,0.465-3.293,0.602-5.551c0.137-2.301,0.203-5.21,0.203-8.722s-0.066-6.422-0.203-8.73
		C194.293,304.174,194.098,302.303,193.828,300.822z" style="fill: rgb(223, 86, 86);"></path>
	<path class="st0" d="M476.266,205.706c-4.047-17.809,18.18-44.746,10.43-60.809c-7.878-16.336-42.875-15.695-54.074-29.726
		c-0.461-0.574-0.839-1.234-1.238-1.875c-0.379-0.606-0.738-1.23-1.066-1.89c-7.727-15.641-1.719-45.195-14.688-55.555
		c-13.09-10.453-41.164,2.473-58.129-2.152c-0.242-0.066-0.465-0.149-0.699-0.219c-0.961-0.297-1.902-0.621-2.782-1.046
		c-16.066-7.75-23.242-42.023-41.05-46.066C295.722,2.443,274.434,30.119,256,30.119c-18.434,0-39.722-27.676-56.969-23.754
		c-17.809,4.043-24.984,38.316-41.05,46.066c-0.879,0.422-1.817,0.75-2.778,1.043c-0.234,0.074-0.461,0.156-0.699,0.222
		c-16.969,4.621-45.035-8.305-58.125,2.148c-12.973,10.36-6.965,39.914-14.692,55.555c-0.328,0.66-0.687,1.285-1.066,1.89
		c-0.394,0.641-0.777,1.301-1.238,1.875c-11.2,14.027-46.196,13.39-54.074,29.726c-7.754,16.066,14.473,43.004,10.426,60.817
		C31.813,222.955,0,237.565,0,255.998s31.813,33.05,35.734,50.293c4.047,17.809-18.18,44.75-10.43,60.817
		c7.878,16.328,42.875,15.695,54.078,29.718c0.457,0.574,0.835,1.234,1.234,1.871c0.379,0.61,0.738,1.238,1.066,1.898
		c7.727,15.645,1.719,45.195,14.688,55.55c13.09,10.454,41.16-2.465,58.129,2.153c0.242,0.07,0.465,0.148,0.699,0.222
		c0.961,0.297,1.902,0.621,2.782,1.043c16.066,7.754,23.242,42.023,41.05,46.07c17.246,3.918,38.535-23.75,56.969-23.75
		c18.434,0,39.722,27.668,56.969,23.75c17.809-4.047,24.984-38.317,41.05-46.066c0.879-0.422,1.821-0.75,2.782-1.043
		c0.23-0.074,0.457-0.156,0.695-0.218c16.965-4.63,45.035,8.297,58.125-2.153c12.973-10.359,6.965-39.918,14.692-55.554
		c0.328-0.66,0.687-1.282,1.062-1.887c0.398-0.64,0.781-1.301,1.242-1.878c11.2-14.027,46.196-13.394,54.074-29.726
		c7.754-16.066-14.473-43.008-10.426-60.817C480.187,289.045,512,274.432,512,255.998S480.187,222.955,476.266,205.706z
		 M270.746,174.096h17.718v61.394h33.722v16.149h-51.441V174.096z M142.992,252.264c-5.781,0-11.023-0.746-15.578-2.219
		c-4.653-1.496-8.926-4.214-12.707-8.074l-1.114-1.137l11.649-11.645l1.133,1.129c2.164,2.168,4.675,3.68,7.469,4.504
		c2.898,0.859,6.011,1.293,9.254,1.293c4.019,0,7.043-0.706,8.985-2.102c1.797-1.293,2.671-3.121,2.671-5.594
		c0-2.148-0.598-3.793-1.828-5.023c-0.566-0.512-1.222-0.926-1.949-1.203c-0.79-0.305-2.074-0.59-3.832-0.851l-8.883-1.356
		c-3.461-0.508-6.445-1.301-8.863-2.363c-2.453-1.082-4.614-2.5-6.41-4.222c-3.863-3.715-5.824-9.016-5.824-15.774
		c0-3.551,0.645-6.84,1.91-9.774c1.27-2.953,3.125-5.527,5.523-7.66c2.371-2.118,5.293-3.782,8.68-4.965
		c3.363-1.164,7.191-1.758,11.386-1.758c5.301,0,10.008,0.695,13.992,2.07c4.039,1.398,7.786,3.773,11.141,7.05l1.164,1.141
		L159.5,195.065l-1.125-1.094c-2.07-2.004-4.34-3.29-6.742-3.813c-2.598-0.566-5.082-0.851-7.386-0.851
		c-3.438,0-5.958,0.773-7.485,2.297c-1.543,1.546-2.293,3.347-2.293,5.496c0,0.797,0.125,1.566,0.379,2.297
		c0.234,0.679,0.64,1.301,1.238,1.898c0.582,0.527,1.371,1.031,2.29,1.446c0.934,0.422,2.133,0.726,3.57,0.914l8.91,1.363
		c3.504,0.504,6.473,1.238,8.817,2.188c2.414,0.98,4.527,2.363,6.274,4.109c2.152,1.93,3.777,4.406,4.77,7.297
		c0.957,2.809,1.445,6,1.445,9.497c0,3.855-0.762,7.332-2.262,10.324c-1.492,2.992-3.594,5.543-6.242,7.598
		c-2.617,2.031-5.746,3.594-9.297,4.652C150.848,251.733,147.023,252.264,142.992,252.264z M212.195,324.818
		c-0.106,2.918-0.414,5.657-0.918,8.141c-0.512,2.535-1.317,4.894-2.383,7.027c-1.082,2.168-2.641,4.274-4.637,6.262
		c-2.633,2.641-5.687,4.707-9.062,6.137c-3.39,1.438-7.394,2.164-11.902,2.164c-4.511,0-8.531-0.726-11.949-2.16
		c-3.414-1.43-6.485-3.496-9.126-6.141c-1.992-1.988-3.546-4.094-4.633-6.262c-1.07-2.141-1.855-4.508-2.332-7.046
		c-0.469-2.469-0.762-5.203-0.863-8.126c-0.102-2.867-0.16-6.09-0.16-9.66c0-3.574,0.058-6.793,0.16-9.668
		c0.102-2.918,0.394-5.648,0.863-8.121c0.477-2.531,1.262-4.902,2.332-7.047c1.086-2.168,2.641-4.274,4.637-6.266
		c2.637-2.641,5.707-4.703,9.126-6.137c3.414-1.434,7.434-2.156,11.945-2.156c4.508,0,8.512,0.726,11.902,2.16
		c3.375,1.434,6.426,3.496,9.07,6.133c1.988,1.992,3.547,4.098,4.629,6.266c1.066,2.133,1.871,4.5,2.383,7.024
		c0.504,2.488,0.812,5.226,0.918,8.144c0.106,2.875,0.16,6.094,0.16,9.668C212.355,318.725,212.301,321.947,212.195,324.818z
		 M219.625,252.264c-4.508,0-8.527-0.726-11.945-2.16c-3.414-1.43-6.485-3.496-9.13-6.141c-1.996-1.996-3.558-4.106-4.633-6.266
		c-1.074-2.141-1.855-4.512-2.335-7.047c-0.462-2.457-0.754-5.191-0.86-8.117c-0.106-2.875-0.16-6.094-0.16-9.668
		c0-3.57,0.054-6.79,0.16-9.66c0.106-2.934,0.398-5.664,0.863-8.122c0.477-2.531,1.258-4.902,2.332-7.05
		c1.082-2.157,2.637-4.266,4.633-6.266c2.645-2.637,5.715-4.703,9.13-6.141c3.418-1.43,7.437-2.156,11.945-2.156
		c4.512,0,8.516,0.726,11.902,2.164c3.375,1.434,6.43,3.496,9.07,6.133c1.988,1.996,3.547,4.102,4.629,6.266
		c1.074,2.144,1.871,4.511,2.379,7.031c0.511,2.477,0.82,5.218,0.922,8.141c0.106,2.867,0.16,6.09,0.16,9.66
		c0,3.574-0.054,6.793-0.16,9.668c-0.102,2.914-0.41,5.656-0.922,8.141c-0.508,2.519-1.309,4.886-2.379,7.027
		c-1.082,2.164-2.637,4.274-4.629,6.262c-2.645,2.641-5.695,4.707-9.07,6.137C228.141,251.538,224.137,252.264,219.625,252.264z
		 M291.18,326.846c0,4.168-0.766,8.008-2.278,11.406c-1.512,3.387-3.606,6.321-6.226,8.723c-2.614,2.39-5.699,4.273-9.184,5.594
		c-3.476,1.316-7.266,1.98-11.27,1.98s-7.793-0.664-11.27-1.98c-3.484-1.321-6.57-3.203-9.179-5.59
		c-2.622-2.398-4.719-5.332-6.226-8.726c-1.516-3.39-2.282-7.226-2.282-11.406v-50.461h17.718v49.942c0,3.926,0.985,6.859,3,8.969
		c2,2.086,4.696,3.106,8.238,3.106c3.551,0,6.266-1.024,8.301-3.114c2.047-2.113,3.043-5.043,3.043-8.961v-49.942h17.614V326.846z
		 M365.621,292.534h-19.418v61.39h-17.722v-61.39h-19.418v-16.149h56.558V292.534z M398.297,221.314
		c-0.07,2.602-0.25,4.989-0.531,7.161c-0.293,2.214-0.793,4.301-1.496,6.195c-0.711,1.898-1.672,3.722-2.852,5.422
		c-2.801,3.977-6.167,6.926-10.019,8.778c-3.816,1.836-8.442,2.77-13.746,2.77h-28.434v-77.543h28.434
		c5.301,0,9.926,0.93,13.746,2.77c3.852,1.851,7.218,4.801,10.016,8.77c1.187,1.714,2.148,3.535,2.855,5.422
		c0.699,1.902,1.203,3.988,1.496,6.199c0.282,2.176,0.461,4.562,0.531,7.164c0.074,2.551,0.11,5.367,0.11,8.446
		C398.406,215.947,398.371,218.76,398.297,221.314z" style="fill: rgb(223, 86, 86);"></path>
	<path class="st0" d="M380.18,200.088c-0.188-1.367-0.458-2.539-0.805-3.48c-0.321-0.864-0.774-1.653-1.348-2.344
		c-2.16-2.715-5.301-4.016-9.625-4.016h-9.461v45.242h9.461c4.324,0,7.469-1.309,9.602-3.992c0.598-0.719,1.05-1.508,1.371-2.371
		c0.347-0.942,0.617-2.11,0.805-3.485c0.203-1.445,0.336-3.202,0.406-5.258c0.063-2.109,0.098-4.613,0.098-7.519
		c0-2.902-0.034-5.406-0.098-7.52C380.516,203.295,380.383,201.542,380.18,200.088z" style="fill: rgb(223, 86, 86);"></path>
</g>
</svg>
